<svg xmlns="http://www.w3.org/2000/svg" width="64.5" height="55.262" viewBox="0 0 64.5 55.262"><defs><style>.a{fill:#ebf0f3;}.b{fill:#44c4a1;}.c{fill:#64798a;}.d{fill:#e56353;}.e{fill:#d5d6db;}.f{fill:#e1e6e9;}.g{fill:#27a2db;}.h{fill:#2d93ba;}</style></defs><g transform="translate(0 -35.2)"><rect class="a" width="54.662" height="31.732" transform="translate(9.838 56.144)"/><rect class="b" width="54.662" height="17.949" transform="translate(9.838 65.443)"/><g transform="translate(20.183 58.945)"><rect class="c" width="24.694" height="0.994" transform="translate(4.638 26.026)"/><rect class="c" width="18.987" height="0.994" transform="translate(0 2.978)"/><rect class="c" width="13.356" height="0.994" transform="translate(0 0)"/></g><path class="d" d="M94.816,203.613h-3.76l-1.88,3.257,1.88,3.257h3.76l1.88-3.257Z" transform="translate(-77.473 -146.314)"/><g transform="translate(45.726 59.41)"><rect class="e" width="2.278" height="3.507"/><rect class="e" width="2.278" height="3.507" transform="translate(2.579)"/><rect class="e" width="2.278" height="3.507" transform="translate(5.16)"/><rect class="e" width="2.278" height="3.507" transform="translate(7.733)"/><rect class="e" width="2.278" height="3.507" transform="translate(10.313)"/><rect class="e" width="2.278" height="3.507" transform="translate(12.893)"/></g><g transform="translate(12.57 69.371)"><rect class="a" width="30.731" height="0.994"/><rect class="a" width="30.731" height="0.994" transform="translate(0 4.577)"/><rect class="a" width="14.347" height="0.994" transform="translate(34.849 9.098)"/><rect class="a" width="14.347" height="4.677" transform="translate(34.849)"/></g><rect class="f" width="54.662" height="2.586" transform="translate(9.838 87.869)"/><rect class="e" width="9.838" height="2.586" transform="translate(0 87.876)"/><rect class="g" width="9.838" height="31.732" transform="translate(0 56.137)"/><path class="h" d="M74.967,56.142C90.634,55.507,101.5,36.573,117.152,35.2q0,15.865,0,31.73C101.5,68.3,90.634,87.237,74.967,87.871Q74.966,72.007,74.967,56.142Z" transform="translate(-65.129 0)"/></g></svg>