<svg xmlns="http://www.w3.org/2000/svg" width="14.4" height="16" viewBox="0 0 14.4 16"><g transform="translate(-888 -409)"><g transform="translate(891.2 409)"><path d="M9,15a4,4,0,1,1,4-4A4.006,4.006,0,0,1,9,15ZM9,8.6A2.4,2.4,0,1,0,11.4,11,2.4,2.4,0,0,0,9,8.6Z" transform="translate(-5 -7)"/></g><g transform="translate(888 418.6)"><path d="M16.6,19.4a.8.8,0,0,1-.8-.8V17a2.4,2.4,0,0,0-2.4-2.4H7A2.4,2.4,0,0,0,4.6,17v1.6a.8.8,0,0,1-1.6,0V17a4.006,4.006,0,0,1,4-4h6.4a4.006,4.006,0,0,1,4,4v1.6A.8.8,0,0,1,16.6,19.4Z" transform="translate(-3 -13)"/></g></g></svg>